<?xml version="1.0" encoding="UTF-8"?>
<svg version="1.1" xmlns="http://www.w3.org/2000/svg" width="500" height="500">
<path d="M0 0 C165 0 330 0 500 0 C500 165 500 330 500 500 C335 500 170 500 0 500 C0 335 0 170 0 0 Z " fill="#196E7E" transform="translate(0,0)"/>
<path d="M0 0 C164.67 0 329.34 0 499 0 C492.2514746 7.87327963 492.2514746 7.87327963 488.0546875 10.6015625 C486.59881226 11.56026245 486.59881226 11.56026245 485.11352539 12.53833008 C484.04481201 13.22693115 482.97609863 13.91553223 481.875 14.625 C480.70299603 15.39175545 479.53171842 16.15962205 478.36108398 16.9284668 C475.72535176 18.65752626 473.08578257 20.38053163 470.44384766 22.10009766 C465.61023035 25.24966104 460.79470116 28.42638025 455.98046875 31.60546875 C454.19076763 32.78704681 452.40105387 33.96860572 450.61132812 35.15014648 C449.70229736 35.75027557 448.7932666 36.35040466 447.85668945 36.96871948 C443.10830081 40.10200254 438.35695256 43.23078836 433.60546875 46.359375 C432.1646846 47.30809731 432.1646846 47.30809731 430.6947937 48.27598572 C425.00452464 52.02257794 419.31342777 55.76791054 413.62200928 59.51275635 C409.03912371 62.52850372 404.4569517 65.54533401 399.875 68.5625 C398.97412659 69.1555896 398.07325317 69.7486792 397.14508057 70.35974121 C386.93223817 77.08508756 376.73483205 83.83265169 366.56640625 90.625 C365.6276062 91.25196274 364.68880615 91.87892548 363.72155762 92.52488708 C359.26664864 95.50103714 354.81393612 98.48039529 350.36474609 101.46508789 C341.56040543 107.36132334 332.69167521 113.12919979 323.71615601 118.7616272 C317.49518952 122.67009333 311.36163894 126.68887271 305.26623535 130.79125977 C302.10499374 132.91808206 298.93716662 135.03506065 295.76953125 137.15234375 C295.0816452 137.61224701 294.39375916 138.07215027 293.68502808 138.54598999 C284.4039608 144.74361203 275.07354309 150.86656658 265.75 157 C254.31612435 164.52191315 242.89205025 172.05739575 231.51171875 179.66015625 C230.1087001 180.59726944 230.1087001 180.59726944 228.67733765 181.55331421 C224.23837246 184.5193507 219.80168859 187.48872827 215.36816406 190.46289062 C206.66434442 196.29167701 197.89724374 201.99188526 189.02267456 207.55728149 C181.39342904 212.35365891 173.8963771 217.33703947 166.41442871 222.35913086 C162.22426259 225.17113314 158.02815282 227.97423902 153.83203125 230.77734375 C152.95549896 231.36301117 152.07896667 231.94867859 151.1758728 232.55209351 C140.89726208 239.41356047 130.5738706 246.20691003 120.25 253 C108.33243717 260.84281543 96.4222702 268.69501537 84.5625 276.625 C74.70422628 283.2150171 64.80486765 289.73952967 54.87597656 296.22241211 C47.27290407 301.18888026 39.69117231 306.18649111 32.12109375 311.203125 C29.28909939 313.07734837 26.45686932 314.95121504 23.62457275 316.82498169 C21.75366295 318.06414016 19.88382478 319.30491817 18.01507568 320.54733276 C15.39424442 322.28955169 12.76978544 324.02617436 10.14453125 325.76171875 C9.35010117 326.29198669 8.55567108 326.82225464 7.73716736 327.36859131 C7.00897293 327.84854553 6.2807785 328.32849976 5.53051758 328.82299805 C4.89406815 329.24534225 4.25761871 329.66768646 3.60188293 330.10282898 C2 331 2 331 0 331 C0 221.77 0 112.54 0 0 Z " fill="#0C9AB3" transform="translate(0,0)"/>
<path d="M0 0 C0.33 0 0.66 0 1 0 C1 157.08 1 314.16 1 476 C-102.29 476 -205.58 476 -312 476 C-304.03748779 462.34997908 -304.03748779 462.34997908 -299.8125 455.9375 C-295.88853093 449.92592218 -292.01252135 443.8875339 -288.1875 437.8125 C-283.81023727 430.86306819 -279.41320878 423.92666389 -275 417 C-268.64089025 407.01618899 -262.31442384 397.01211455 -256 387 C-253.79216098 383.49968784 -251.58372231 379.99975484 -249.375 376.5 C-248.86565918 375.69216064 -248.35631836 374.88432129 -247.83154297 374.05200195 C-247.35861816 373.30265381 -246.88569336 372.55330566 -246.3984375 371.78125 C-245.98255371 371.12189453 -245.56666992 370.46253906 -245.13818359 369.78320312 C-244.1122109 368.17580189 -243.05777105 366.58665658 -242 365 C-237.42711517 365.54703669 -234.20599206 367.52363306 -230.4375 370 C-229.01175079 370.91354382 -227.58454805 371.82482136 -226.15625 372.734375 C-225.35058594 373.24806641 -224.54492188 373.76175781 -223.71484375 374.29101562 C-218.33157848 377.67976175 -212.87944678 380.95668741 -207.4375 384.25 C-206.2178673 384.98914415 -204.99830379 385.72840245 -203.77880859 386.46777344 C-201.34853443 387.94113043 -198.91802622 389.41409994 -196.48730469 390.88671875 C-180.60676088 400.508904 -164.77185949 410.20059655 -149 420 C-146.07613674 412.87848891 -143.42679936 405.68969463 -140.90234375 398.41796875 C-140.10263685 396.12824948 -139.30291278 393.8385362 -138.50317383 391.54882812 C-138.0856485 390.3507251 -137.66812317 389.15262207 -137.23794556 387.91821289 C-135.00048437 381.49939341 -132.75546616 375.08322551 -130.5078125 368.66796875 C-130.16318057 367.6841604 -130.16318057 367.6841604 -129.81158638 366.68047714 C-125.05028341 353.09446695 -120.19106057 339.54431991 -115.3125 326 C-108.81398836 307.95146409 -102.44668834 289.86228944 -96.18563843 271.73007202 C-91.1139684 257.04494884 -85.95930884 242.39306657 -80.71264648 227.76959229 C-75.3294529 212.76388646 -70.02861271 197.73029018 -64.75 182.6875 C-58.44566484 164.72418196 -52.0709189 146.78797895 -45.625 128.875 C-38.27742649 108.45500248 -31.06971103 87.98862252 -23.91915894 67.49908447 C-16.05304485 44.96071762 -8.07552786 22.46413504 0 0 Z " fill="#0C9AB3" transform="translate(499,24)"/>
<path d="M0 0 C61.38 0 122.76 0 186 0 C186 54.12 186 108.24 186 164 C124.62 164 63.24 164 0 164 C0 109.88 0 55.76 0 0 Z " fill="#FEFEFE" transform="translate(0,336)"/>
<path d="M0 0 C0.33 0 0.66 0 1 0 C2.60659573 15.36910467 -2.10800448 27.81732287 -7.4375 42.0625 C-8.3098781 44.45619386 -9.17946119 46.85090802 -10.04638672 49.24658203 C-11.8202238 54.13952836 -13.60710764 59.02738521 -15.40478516 63.91162109 C-18.88586042 73.38921109 -22.23824751 82.91139945 -25.58938599 92.43551636 C-27.32550885 97.36332219 -29.07331028 102.28698042 -30.8203125 107.2109375 C-31.5160025 109.17283313 -32.21164054 111.13474719 -32.90722656 113.09667969 C-33.42428162 114.55503235 -33.42428162 114.55503235 -33.95178223 116.04284668 C-36.78097141 124.02434289 -39.60713885 132.00690997 -42.43383789 139.98928833 C-44.2135723 145.0150411 -45.99350552 150.04072345 -47.7734375 155.06640625 C-48.30121796 156.55662544 -48.30121796 156.55662544 -48.83966064 158.07695007 C-51.23921886 164.85216718 -53.63908282 171.62727593 -56.0390625 178.40234375 C-59.55991754 188.34172144 -63.07999449 198.2813745 -66.59960938 208.22119141 C-68.06363919 212.3557878 -69.52779799 216.49033847 -70.99210167 220.62483788 C-74.1204889 229.4579582 -77.2480907 238.29135638 -80.375 247.125 C-80.74125362 248.15963882 -80.74125362 248.15963882 -81.11490631 249.21517944 C-88.49753815 270.07116959 -95.85151248 290.9370329 -103.18499756 311.81036377 C-108.53971332 327.0481815 -113.93790728 342.26957544 -119.38659668 357.47402954 C-125.91676563 375.7001477 -132.33545489 393.96523636 -138.74414062 412.234375 C-139.13788879 413.35592987 -139.53163696 414.47748474 -139.93731689 415.63302612 C-140.67436494 417.73263313 -141.41070256 419.83248973 -142.1461792 421.93264771 C-144.03533359 427.313492 -145.97575985 432.66845075 -148 438 C-155.97084573 433.91190816 -163.53850159 429.24083955 -171.13525391 424.50610352 C-178.57993957 419.86909479 -186.06189524 415.29578561 -193.5625 410.75 C-194.14322266 410.39793488 -194.72394531 410.04586975 -195.32226562 409.68313599 C-197.70344269 408.2395885 -200.08475659 406.79626743 -202.46636963 405.35343933 C-206.92461024 402.65251411 -211.38079024 399.94821184 -215.8359375 397.2421875 C-216.79647285 396.65878601 -216.79647285 396.65878601 -217.77641296 396.06359863 C-220.2701707 394.54891671 -222.76389107 393.03417329 -225.25759888 391.51940918 C-226.96201762 390.48416265 -228.66655335 389.44910872 -230.37109375 388.4140625 C-231.33974365 387.8257666 -232.30839355 387.2374707 -233.30639648 386.63134766 C-235.8668341 385.08065028 -238.43196551 383.53807726 -241 382 C-239.66753371 378.3759336 -238.04834051 375.32417316 -235.91015625 372.11328125 C-234.98976563 370.72012695 -234.98976563 370.72012695 -234.05078125 369.29882812 C-233.39464844 368.31333984 -232.73851562 367.32785156 -232.0625 366.3125 C-227.42170298 359.27631061 -222.84381188 352.22363211 -218.5 345 C-214.32069444 338.06233701 -209.94716266 331.26884725 -205.5 324.5 C-200.62095785 317.07147709 -195.86426596 309.59423268 -191.27124023 301.98608398 C-185.98443585 293.26184062 -180.43796222 284.70388877 -174.92578125 276.12109375 C-171.51096142 270.80336536 -168.12070366 265.47078231 -164.75 260.125 C-164.26909912 259.3623584 -163.78819824 258.5997168 -163.29272461 257.81396484 C-162.33717086 256.29783467 -161.38184603 254.7815602 -160.42675781 253.26513672 C-153.05244165 241.55758959 -145.6488735 229.86907151 -138.21582031 218.19873047 C-132.45304413 209.1477072 -126.72362451 200.07581423 -121 191 C-114.09524412 180.05129406 -107.16950614 169.11643589 -100.21582031 158.19873047 C-94.45304413 149.1477072 -88.72362451 140.07581423 -83 131 C-76.09524412 120.05129406 -69.16950614 109.11643589 -62.21582031 98.19873047 C-56.45304413 89.1477072 -50.72362451 80.07581423 -45 71 C-38.09893069 60.05713976 -31.17736476 49.12781399 -24.22680664 38.21630859 C-20.32574003 32.08984483 -16.43876558 25.95468212 -12.5625 19.8125 C-12.07031982 19.03350342 -11.57813965 18.25450684 -11.07104492 17.4519043 C-8.95189291 14.09721324 -6.83603791 10.74067919 -4.734375 7.375 C-3.78304687 5.8590625 -3.78304687 5.8590625 -2.8125 4.3125 C-2.28269531 3.46300781 -1.75289062 2.61351562 -1.20703125 1.73828125 C-0.60955078 0.87783203 -0.60955078 0.87783203 0 0 Z " fill="#0F7B8E" transform="translate(499,7)"/>
<path d="M0 0 C-4.86830199 6.3865521 -10.40993042 10.29829817 -17.125 14.625 C-18.29700397 15.39175545 -19.46828158 16.15962205 -20.63891602 16.9284668 C-23.27464824 18.65752626 -25.91421743 20.38053163 -28.55615234 22.10009766 C-33.38976965 25.24966104 -38.20529884 28.42638025 -43.01953125 31.60546875 C-44.80923237 32.78704681 -46.59894613 33.96860572 -48.38867188 35.15014648 C-49.29770264 35.75027557 -50.2067334 36.35040466 -51.14331055 36.96871948 C-55.89169919 40.10200254 -60.64304744 43.23078836 -65.39453125 46.359375 C-66.8353154 47.30809731 -66.8353154 47.30809731 -68.3052063 48.27598572 C-73.99547536 52.02257794 -79.68657223 55.76791054 -85.37799072 59.51275635 C-89.96087629 62.52850372 -94.5430483 65.54533401 -99.125 68.5625 C-100.02587341 69.1555896 -100.92674683 69.7486792 -101.85491943 70.35974121 C-112.06776183 77.08508756 -122.26516795 83.83265169 -132.43359375 90.625 C-133.3723938 91.25196274 -134.31119385 91.87892548 -135.27844238 92.52488708 C-139.73335136 95.50103714 -144.18606388 98.48039529 -148.63525391 101.46508789 C-157.43959457 107.36132334 -166.30832479 113.12919979 -175.28384399 118.7616272 C-181.50481048 122.67009333 -187.63836106 126.68887271 -193.73376465 130.79125977 C-196.89500626 132.91808206 -200.06283338 135.03506065 -203.23046875 137.15234375 C-203.9183548 137.61224701 -204.60624084 138.07215027 -205.31497192 138.54598999 C-214.5960392 144.74361203 -223.92645691 150.86656658 -233.25 157 C-244.68387565 164.52191315 -256.10794975 172.05739575 -267.48828125 179.66015625 C-268.8912999 180.59726944 -268.8912999 180.59726944 -270.32266235 181.55331421 C-274.76162754 184.5193507 -279.19831141 187.48872827 -283.63183594 190.46289062 C-292.29670836 196.26561696 -301.02391269 201.94091437 -309.85949707 207.48023987 C-318.87493066 213.14843199 -327.716814 219.07179838 -336.5625 225 C-338.20232402 226.09657842 -339.84229789 227.19293278 -341.48242188 228.2890625 C-344.71052825 230.44682778 -347.93783989 232.60577356 -351.16455078 234.765625 C-358.76923185 239.85444107 -366.38494619 244.92672535 -374 250 C-377.01274523 247.08004783 -379.72224486 244.23117666 -382.09375 240.76953125 C-382.64232666 239.97603271 -383.19090332 239.18253418 -383.75610352 238.36499023 C-384.61933228 237.10150757 -384.61933228 237.10150757 -385.5 235.8125 C-386.74749467 234.00698054 -387.99621848 232.2023098 -389.24609375 230.3984375 C-389.87370605 229.4919043 -390.50131836 228.58537109 -391.14794922 227.65136719 C-393.90162848 223.70924264 -396.7297365 219.82297674 -399.5625 215.9375 C-404.65885958 208.93088024 -409.5856415 201.82091224 -414.44824219 194.65039062 C-418.07613507 189.31038297 -421.81116607 184.08256195 -425.70703125 178.93359375 C-427 177 -427 177 -427 175 C-403.84763418 165.13273078 -380.69024435 155.27796943 -357.5 145.5 C-341.16413072 138.61200708 -324.84496729 131.68567936 -308.53494263 124.73672485 C-294.34735454 118.69271914 -280.14778389 112.67793699 -265.9375 106.6875 C-249.27526833 99.66328371 -232.63322168 92.59262578 -216 85.5 C-198.45021804 78.0165408 -180.8885432 70.56251431 -163.30810547 63.15136719 C-149.02619741 57.13018982 -134.75911887 51.07493868 -120.5 45 C-108.79547157 40.01394884 -97.08922425 35.03214194 -85.37109375 30.078125 C-84.42006271 29.67600296 -83.46903168 29.27388092 -82.48918152 28.85957336 C-77.77833598 26.86890544 -73.06557928 24.8829466 -68.34936523 22.9050293 C-60.16792949 19.47087258 -51.99858778 16.01928158 -43.88432312 12.42868042 C-40.4317954 10.90260604 -36.97151126 9.39459988 -33.51052856 7.88781738 C-31.90897317 7.18432055 -30.31132365 6.47184651 -28.7182312 5.74938965 C-18.76167427 1.23634017 -11.11275328 -1.0807585 0 0 Z " fill="#14859A" transform="translate(499,0)"/>
<path d="M0 0 C0.33 0 0.66 0 1 0 C0.96994873 0.58007812 0.93989746 1.16015625 0.90893555 1.7578125 C0.96992484 5.34176498 1.05882559 8.0074157 3.60009766 10.6875 C5.93803629 12.28260807 8.32313195 13.65287657 10.8125 15 C12.73606007 16.11392224 14.65921604 17.2285425 16.58203125 18.34375 C17.6179541 18.93027344 18.65387695 19.51679688 19.72119141 20.12109375 C24.94674321 23.11557228 30.07526162 26.26771309 35.21310425 29.40921021 C37.58671299 30.85815215 39.96546492 32.29853286 42.34413147 33.739151 C52.27354875 39.75471946 62.1446854 45.86394748 72 52 C66.56182001 61.92344627 60.5669838 71.39283083 54.36328125 80.8515625 C51.17008985 85.72340262 48.04095685 90.63311986 44.9375 95.5625 C44.44523926 96.34415527 43.95297852 97.12581055 43.44580078 97.93115234 C42.45518143 99.50529165 41.46494552 101.07967233 40.47509766 102.65429688 C31.9270829 116.24736635 23.33457378 129.81249739 14.69287109 143.34619141 C13.5741732 145.09990443 12.45727724 146.85476837 11.34228516 148.61083984 C9.81602201 151.01429776 8.28382175 153.41386112 6.75 155.8125 C6.06925415 156.88878662 6.06925415 156.88878662 5.37475586 157.98681641 C2.22833791 162.88583105 2.22833791 162.88583105 0 164 C0 109.88 0 55.76 0 0 Z " fill="#1B7687" transform="translate(186,336)"/>
<path d="M0 0 C22.11 0 44.22 0 67 0 C67 20.46 67 40.92 67 62 C44.89 62 22.78 62 0 62 C0 41.54 0 21.08 0 0 Z " fill="#0C9BB4" transform="translate(0,438)"/>
</svg>
